<?xml version="1.0" standalone="no"?>
<!DOCTYPE svg PUBLIC "-//W3C//DTD SVG 20010904//EN"
 "http://www.w3.org/TR/2001/REC-SVG-20010904/DTD/svg10.dtd">
<svg version="1.0" xmlns="http://www.w3.org/2000/svg"
 width="400.000000pt" height="69.000000pt" viewBox="0 0 400.000000 69.000000"
 preserveAspectRatio="xMidYMid meet">

<g transform="translate(0.000000,69.000000) scale(0.100000,-0.100000)"
fill="#000000" stroke="none">
<path d="M493 629 c-96 -18 -154 -76 -161 -163 -8 -99 32 -145 162 -185 98
-30 126 -47 126 -76 0 -19 -7 -26 -32 -33 -47 -13 -94 -4 -166 28 l-63 29 -26
-54 c-33 -66 -28 -75 65 -107 93 -32 219 -32 280 0 100 53 122 185 44 262 -27
27 -57 42 -112 59 -115 34 -140 47 -140 74 0 13 5 28 12 35 20 20 99 14 157
-13 30 -14 55 -24 56 -23 2 2 14 27 29 55 l26 53 -37 18 c-77 39 -154 53 -220
41z"/>
<path d="M847 624 c-4 -4 -7 -135 -7 -291 l0 -283 70 0 70 0 0 84 c0 69 4 88
21 110 11 14 26 26 32 26 7 -1 46 -50 87 -110 l75 -109 79 -1 c61 0 76 3 69
13 -5 6 -56 77 -113 156 -120 166 -121 133 9 289 47 57 88 108 89 113 2 5 -29
9 -70 8 l-73 0 -100 -120 -100 -120 -5 118 -5 118 -60 3 c-34 2 -64 0 -68 -4z"/>
<path d="M1506 614 c-68 -21 -147 -101 -171 -173 -39 -117 -12 -233 72 -317
53 -53 105 -74 188 -74 172 0 295 134 283 309 -14 195 -185 312 -372 255z
m172 -124 c48 -30 76 -98 69 -169 -3 -31 -10 -69 -17 -86 l-11 -29 -24 29
c-23 30 -24 52 -2 38 7 -4 -1 10 -16 30 -21 28 -24 37 -13 37 23 0 21 5 -25
65 l-41 54 -42 -57 c-29 -38 -38 -58 -29 -60 18 -5 16 -12 -9 -39 -12 -13 -16
-23 -10 -23 7 0 12 -6 12 -12 -1 -14 -34 -58 -44 -58 -10 0 -26 76 -26 130 0
67 23 117 69 147 44 30 113 31 159 3z"/>
<path d="M2104 614 c-137 -49 -214 -215 -170 -367 48 -165 231 -252 369 -174
l47 26 0 -25 c0 -22 3 -24 55 -24 l55 0 0 150 0 150 -110 0 -110 0 0 -50 0
-50 55 0 c53 0 55 -1 45 -20 -16 -30 -84 -61 -136 -62 -49 -1 -82 17 -118 65
-30 40 -34 149 -8 197 52 95 165 107 241 27 l23 -26 49 36 c37 28 46 40 39 52
-18 34 -77 81 -119 96 -54 19 -152 18 -207 -1z"/>
<path d="M2835 618 c-54 -151 -195 -538 -200 -550 -6 -16 0 -18 63 -18 l70 0
22 65 22 65 88 0 88 0 22 -65 22 -65 69 0 69 0 -35 97 c-19 54 -66 184 -104
288 l-69 190 -61 3 c-43 2 -63 -1 -66 -10z m94 -236 c13 -42 26 -85 28 -94 5
-16 -2 -18 -56 -18 -40 0 -61 4 -61 12 0 18 53 178 60 178 3 0 16 -35 29 -78z"/>
<path d="M3227 623 c-4 -3 -7 -134 -7 -290 l0 -283 178 0 c201 0 244 11 282
72 41 65 14 178 -49 208 l-24 11 26 27 c50 52 59 110 27 179 -34 75 -58 83
-256 83 -94 0 -174 -3 -177 -7z m301 -125 c17 -17 15 -73 -3 -88 -8 -7 -45
-12 -87 -12 l-73 0 -3 56 -3 56 79 0 c47 0 83 -5 90 -12z m14 -225 c10 -9 18
-30 18 -49 0 -49 -28 -64 -122 -64 l-78 0 0 65 0 65 82 0 c62 0 86 -4 100 -17z"/>
</g>
</svg>
